ffmpeg started on 2025-05-12 at 17:47:04
Report written to "D:\Convert\FFMetrics\reports\psnr_report-6.txt"
Log level: 32
Command line:
ffmpeg -hide_banner -nostdin -i "G:\\\xc0\xed\xe8\xec\xe5\\\xce\xed\xe3\xee\xe8\xed\xe3\xe8\\!_35_\xcb\xe5\xf2\xee_2024\\DreamCast\\\xce\xef\xe5\xf0\xe0\xf6\xe8\xff - \xd1\xe5\xec\xe5\xe9\xea\xe0 \xa8\xe4\xe7\xe0\xea\xf3\xf0\xe0\\[DC] Yozakura-san Chi no Daisakusen - 21_Telegram_HEVC.mkv" -i "G:\\\xc0\xed\xe8\xec\xe5\\\xce\xed\xe3\xee\xe8\xed\xe3\xe8\\!_35_\xcb\xe5\xf2\xee_2024\\DreamCast\\\xce\xef\xe5\xf0\xe0\xf6\xe8\xff - \xd1\xe5\xec\xe5\xe9\xea\xe0 \xa8\xe4\xe7\xe0\xea\xf3\xf0\xe0\\[DC] Yozakura-san Chi no Daisakusen - 21_Telegram.mp4" -lavfi "[0:v]settb=AVTB,setpts=PTS-STARTPTS,format=pix_fmts=yuv420p10,fps=24000/1001,scale=1920:1080:flags=bicubic[main];[1:v]settb=AVTB,setpts=PTS-STARTPTS,format=pix_fmts=yuv420p,fps=24000/1001,scale=1920:1080:flags=bicubic[ref];[main][ref]psnr=eof_action=endall:stats_file='D\\:/Convert/FFMetrics/logs/psnr_logfile-6.txt'" -f null -
Input #0, matroska,webm, from 'G:\Аниме\Онгоинги\!_35_Лето_2024\DreamCast\Операция - Семейка Ёдзакура\[DC] Yozakura-san Chi no Daisakusen - 21_Telegram_HEVC.mkv':
  Metadata:
    COMPATIBLE_BRANDS: isomiso2avc1mp41
    MAJOR_BRAND     : isom
    MINOR_VERSION   : 512
    ENCODER         : Lavf61.7.100
  Duration: 00:24:46.00, start: -0.021000, bitrate: 1185 kb/s
  Stream #0:0: Video: hevc (Main 10), yuv420p10le(tv, bt709, progressive), 1920x1080 [SAR 1:1 DAR 16:9], 23.98 fps, 23.98 tbr, 1k tbn (default)
      Metadata:
        HANDLER_NAME    : VideoHandler
        VENDOR_ID       : [0][0][0][0]
        ENCODER         : Lavc61.19.100 libx265
        BPS             : 1014924
        DURATION        : 00:24:09.531708333
        NUMBER_OF_FRAMES: 34754
        NUMBER_OF_BYTES : 183895514
        _STATISTICS_WRITING_APP: mkvpropedit v66.0.0 ('Josie') 64-bit
        _STATISTICS_WRITING_DATE_UTC: 2025-05-08 16:52:56
        _STATISTICS_TAGS: BPS DURATION NUMBER_OF_FRAMES NUMBER_OF_BYTES
  Stream #0:1: Audio: aac (LC), 48000 Hz, stereo, fltp (default)
      Metadata:
        HANDLER_NAME    : SoundHandler
        VENDOR_ID       : [0][0][0][0]
        ENCODER         : Lavc61.19.100 aac
        BPS             : 191455
        DURATION        : 00:24:45.994000000
        NUMBER_OF_FRAMES: 69657
        NUMBER_OF_BYTES : 35562747
        _STATISTICS_WRITING_APP: mkvpropedit v66.0.0 ('Josie') 64-bit
        _STATISTICS_WRITING_DATE_UTC: 2025-05-08 16:52:56
        _STATISTICS_TAGS: BPS DURATION NUMBER_OF_FRAMES NUMBER_OF_BYTES
Input #1, mov,mp4,m4a,3gp,3g2,mj2, from 'G:\Аниме\Онгоинги\!_35_Лето_2024\DreamCast\Операция - Семейка Ёдзакура\[DC] Yozakura-san Chi no Daisakusen - 21_Telegram.mp4':
  Metadata:
    major_brand     : isom
    minor_version   : 512
    compatible_brands: isomiso2avc1mp41
    encoder         : Lavf60.16.100
  Duration: 00:24:45.97, start: 0.000000, bitrate: 3616 kb/s
  Stream #1:0[0x1](und): Video: h264 (High) (avc1 / 0x31637661), yuv420p(tv, bt709, progressive), 1920x1080 [SAR 1:1 DAR 16:9], 3555 kb/s, 23.98 fps, 23.98 tbr, 24k tbn (default)
      Metadata:
        handler_name    : VideoHandler
        vendor_id       : [0][0][0][0]
        encoder         : Lavc60.31.102 h264_qsv
  Stream #1:1[0x2](und): Audio: aac (HE-AACv2) (mp4a / 0x6134706D), 48000 Hz, stereo, fltp, 144 kb/s (default)
      Metadata:
        handler_name    : SoundHandler
        vendor_id       : [0][0][0][0]
Stream mapping:
  Stream #0:0 (hevc) -> settb:default
  Stream #1:0 (h264) -> settb:default
  psnr:default -> Stream #0:0 (wrapped_avframe)
  Stream #0:1 -> #0:1 (aac (native) -> pcm_s16le (native))
Output #0, null, to 'pipe:':
  Metadata:
    COMPATIBLE_BRANDS: isomiso2avc1mp41
    MAJOR_BRAND     : isom
    MINOR_VERSION   : 512
    encoder         : Lavf61.7.100
  Stream #0:0: Video: wrapped_avframe, yuv420p10le(tv, bt709, progressive), 1920x1080 [SAR 1:1 DAR 16:9], q=2-31, 200 kb/s, 23.98 fps, 23.98 tbn
      Metadata:
        encoder         : Lavc61.19.100 wrapped_avframe
  Stream #0:1: Audio: pcm_s16le, 48000 Hz, stereo, s16, 1536 kb/s (default)
      Metadata:
        HANDLER_NAME    : SoundHandler
        VENDOR_ID       : [0][0][0][0]
        _STATISTICS_TAGS: BPS DURATION NUMBER_OF_FRAMES NUMBER_OF_BYTES
        BPS             : 191455
        DURATION        : 00:24:45.994000000
        NUMBER_OF_FRAMES: 69657
        NUMBER_OF_BYTES : 35562747
        _STATISTICS_WRITING_APP: mkvpropedit v66.0.0 ('Josie') 64-bit
        _STATISTICS_WRITING_DATE_UTC: 2025-05-08 16:52:56
        encoder         : Lavc61.19.100 pcm_s16le
frame=  178 fps=0.0 q=-0.0 size=N/A time=00:00:07.42 bitrate=N/A speed=14.6x    frame=  394 fps=382 q=-0.0 size=N/A time=00:00:16.43 bitrate=N/A speed=15.9x    frame=  634 fps=411 q=-0.0 size=N/A time=00:00:26.44 bitrate=N/A speed=17.1x    frame=  909 fps=443 q=-0.0 size=N/A time=00:00:37.91 bitrate=N/A speed=18.5x    frame= 1149 fps=447 q=-0.0 size=N/A time=00:00:47.92 bitrate=N/A speed=18.6x    frame= 1380 fps=447 q=-0.0 size=N/A time=00:00:57.55 bitrate=N/A speed=18.7x    frame= 1638 fps=454 q=-0.0 size=N/A time=00:01:08.31 bitrate=N/A speed=18.9x    frame= 1872 fps=455 q=-0.0 size=N/A time=00:01:18.07 bitrate=N/A speed=  19x    frame= 2108 fps=455 q=-0.0 size=N/A time=00:01:27.92 bitrate=N/A speed=  19x    frame= 2375 fps=462 q=-0.0 size=N/A time=00:01:39.05 bitrate=N/A speed=19.3x    frame= 2643 fps=467 q=-0.0 size=N/A time=00:01:50.27 bitrate=N/A speed=19.5x    frame= 2859 fps=462 q=-0.0 size=N/A time=00:01:59.24 bitrate=N/A speed=19.3x    frame= 3000 fps=448 q=-0.0 size=N/A time=00:02:05.12 bitrate=N/A speed=18.7x    frame= 3168 fps=439 q=-0.0 size=N/A time=00:02:12.13 bitrate=N/A speed=18.3x    frame= 3374 fps=437 q=-0.0 size=N/A time=00:02:20.72 bitrate=N/A speed=18.2x    frame= 3606 fps=437 q=-0.0 size=N/A time=00:02:30.40 bitrate=N/A speed=18.2x    frame= 3798 fps=433 q=-0.0 size=N/A time=00:02:38.40 bitrate=N/A speed=18.1x    frame= 4003 fps=432 q=-0.0 size=N/A time=00:02:46.95 bitrate=N/A speed=  18x    frame= 4200 fps=429 q=-0.0 size=N/A time=00:02:55.17 bitrate=N/A speed=17.9x    frame= 4346 fps=422 q=-0.0 size=N/A time=00:03:01.26 bitrate=N/A speed=17.6x    frame= 4562 fps=421 q=-0.0 size=N/A time=00:03:10.27 bitrate=N/A speed=17.6x    frame= 4746 fps=419 q=-0.0 size=N/A time=00:03:17.94 bitrate=N/A speed=17.5x    frame= 4944 fps=417 q=-0.0 size=N/A time=00:03:26.20 bitrate=N/A speed=17.4x    frame= 5170 fps=418 q=-0.0 size=N/A time=00:03:35.63 bitrate=N/A speed=17.4x    frame= 5358 fps=416 q=-0.0 size=N/A time=00:03:43.47 bitrate=N/A speed=17.3x    frame= 5521 fps=412 q=-0.0 size=N/A time=00:03:50.27 bitrate=N/A speed=17.2x    frame= 5749 fps=413 q=-0.0 size=N/A time=00:03:59.78 bitrate=N/A speed=17.2x    frame= 5995 fps=416 q=-0.0 size=N/A time=00:04:10.04 bitrate=N/A speed=17.3x    frame= 6239 fps=417 q=-0.0 size=N/A time=00:04:20.21 bitrate=N/A speed=17.4x    frame= 6477 fps=419 q=-0.0 size=N/A time=00:04:30.14 bitrate=N/A speed=17.5x    frame= 6753 fps=423 q=-0.0 size=N/A time=00:04:41.65 bitrate=N/A speed=17.6x    frame= 7018 fps=426 q=-0.0 size=N/A time=00:04:52.70 bitrate=N/A speed=17.7x    frame= 7274 fps=427 q=-0.0 size=N/A time=00:05:03.38 bitrate=N/A speed=17.8x    frame= 7480 fps=427 q=-0.0 size=N/A time=00:05:11.97 bitrate=N/A speed=17.8x    frame= 7749 fps=429 q=-0.0 size=N/A time=00:05:23.19 bitrate=N/A speed=17.9x    frame= 7977 fps=430 q=-0.0 size=N/A time=00:05:32.70 bitrate=N/A speed=17.9x    frame= 8276 fps=434 q=-0.0 size=N/A time=00:05:45.17 bitrate=N/A speed=18.1x    frame= 8512 fps=435 q=-0.0 size=N/A time=00:05:55.02 bitrate=N/A speed=18.1x    frame= 8761 fps=436 q=-0.0 size=N/A time=00:06:05.40 bitrate=N/A speed=18.2x    frame= 9007 fps=437 q=-0.0 size=N/A time=00:06:15.66 bitrate=N/A speed=18.2x    frame= 9269 fps=438 q=-0.0 size=N/A time=00:06:26.59 bitrate=N/A speed=18.3x    frame= 9506 fps=439 q=-0.0 size=N/A time=00:06:36.47 bitrate=N/A speed=18.3x    frame= 9786 fps=441 q=-0.0 size=N/A time=00:06:48.15 bitrate=N/A speed=18.4x    frame=10014 fps=441 q=-0.0 size=N/A time=00:06:57.66 bitrate=N/A speed=18.4x    frame=10275 fps=443 q=-0.0 size=N/A time=00:07:08.55 bitrate=N/A speed=18.5x    frame=10536 fps=444 q=-0.0 size=N/A time=00:07:19.43 bitrate=N/A speed=18.5x    frame=10773 fps=445 q=-0.0 size=N/A time=00:07:29.32 bitrate=N/A speed=18.6x    frame=10976 fps=444 q=-0.0 size=N/A time=00:07:37.79 bitrate=N/A speed=18.5x    frame=11193 fps=443 q=-0.0 size=N/A time=00:07:46.84 bitrate=N/A speed=18.5x    frame=11417 fps=443 q=-0.0 size=N/A time=00:07:56.18 bitrate=N/A speed=18.5x    frame=11686 fps=444 q=-0.0 size=N/A time=00:08:07.40 bitrate=N/A speed=18.5x    frame=11932 fps=445 q=-0.0 size=N/A time=00:08:17.66 bitrate=N/A speed=18.6x    frame=12166 fps=445 q=-0.0 size=N/A time=00:08:27.42 bitrate=N/A speed=18.6x    frame=12382 fps=445 q=-0.0 size=N/A time=00:08:36.43 bitrate=N/A speed=18.6x    frame=12641 fps=446 q=-0.0 size=N/A time=00:08:47.23 bitrate=N/A speed=18.6x    frame=12899 fps=447 q=-0.0 size=N/A time=00:08:57.99 bitrate=N/A speed=18.6x    frame=13188 fps=449 q=-0.0 size=N/A time=00:09:10.04 bitrate=N/A speed=18.7x    frame=13440 fps=450 q=-0.0 size=N/A time=00:09:20.56 bitrate=N/A speed=18.8x    frame=13730 fps=451 q=-0.0 size=N/A time=00:09:32.65 bitrate=N/A speed=18.8x    frame=13974 fps=452 q=-0.0 size=N/A time=00:09:42.83 bitrate=N/A speed=18.8x    frame=14216 fps=452 q=-0.0 size=N/A time=00:09:52.92 bitrate=N/A speed=18.9x    frame=14451 fps=452 q=-0.0 size=N/A time=00:10:02.72 bitrate=N/A speed=18.9x    frame=14695 fps=452 q=-0.0 size=N/A time=00:10:12.90 bitrate=N/A speed=18.9x    frame=14956 fps=453 q=-0.0 size=N/A time=00:10:23.78 bitrate=N/A speed=18.9x    frame=15248 fps=455 q=-0.0 size=N/A time=00:10:35.96 bitrate=N/A speed=  19x    frame=15534 fps=456 q=-0.0 size=N/A time=00:10:47.89 bitrate=N/A speed=  19x    frame=15820 fps=458 q=-0.0 size=N/A time=00:10:59.82 bitrate=N/A speed=19.1x    frame=16086 fps=459 q=-0.0 size=N/A time=00:11:10.92 bitrate=N/A speed=19.1x    frame=16344 fps=459 q=-0.0 size=N/A time=00:11:21.68 bitrate=N/A speed=19.2x    frame=16599 fps=460 q=-0.0 size=N/A time=00:11:32.31 bitrate=N/A speed=19.2x    frame=16850 fps=460 q=-0.0 size=N/A time=00:11:42.78 bitrate=N/A speed=19.2x    frame=17071 fps=460 q=-0.0 size=N/A time=00:11:52.00 bitrate=N/A speed=19.2x    frame=17331 fps=461 q=-0.0 size=N/A time=00:12:02.84 bitrate=N/A speed=19.2x    frame=17607 fps=461 q=-0.0 size=N/A time=00:12:14.35 bitrate=N/A speed=19.2x    frame=17879 fps=462 q=-0.0 size=N/A time=00:12:25.70 bitrate=N/A speed=19.3x    frame=18155 fps=463 q=-0.0 size=N/A time=00:12:37.21 bitrate=N/A speed=19.3x    frame=18420 fps=464 q=-0.0 size=N/A time=00:12:48.26 bitrate=N/A speed=19.4x    frame=18681 fps=464 q=-0.0 size=N/A time=00:12:59.15 bitrate=N/A speed=19.4x    frame=18924 fps=465 q=-0.0 size=N/A time=00:13:09.28 bitrate=N/A speed=19.4x    frame=19177 fps=465 q=-0.0 size=N/A time=00:13:19.84 bitrate=N/A speed=19.4x    frame=19449 fps=466 q=-0.0 size=N/A time=00:13:31.18 bitrate=N/A speed=19.4x    frame=19728 fps=467 q=-0.0 size=N/A time=00:13:42.82 bitrate=N/A speed=19.5x    frame=19959 fps=466 q=-0.0 size=N/A time=00:13:52.45 bitrate=N/A speed=19.5x    frame=20209 fps=467 q=-0.0 size=N/A time=00:14:02.88 bitrate=N/A speed=19.5x    frame=20479 fps=467 q=-0.0 size=N/A time=00:14:14.14 bitrate=N/A speed=19.5x    frame=20748 fps=468 q=-0.0 size=N/A time=00:14:25.36 bitrate=N/A speed=19.5x    frame=20983 fps=468 q=-0.0 size=N/A time=00:14:35.16 bitrate=N/A speed=19.5x    frame=21246 fps=468 q=-0.0 size=N/A time=00:14:46.13 bitrate=N/A speed=19.5x    frame=21476 fps=468 q=-0.0 size=N/A time=00:14:55.72 bitrate=N/A speed=19.5x    frame=21728 fps=468 q=-0.0 size=N/A time=00:15:06.23 bitrate=N/A speed=19.5x    frame=21990 fps=469 q=-0.0 size=N/A time=00:15:17.16 bitrate=N/A speed=19.5x    frame=22258 fps=469 q=-0.0 size=N/A time=00:15:28.34 bitrate=N/A speed=19.6x    frame=22466 fps=468 q=-0.0 size=N/A time=00:15:37.01 bitrate=N/A speed=19.5x    frame=22667 fps=468 q=-0.0 size=N/A time=00:15:45.40 bitrate=N/A speed=19.5x    frame=22864 fps=467 q=-0.0 size=N/A time=00:15:53.61 bitrate=N/A speed=19.5x    frame=23096 fps=466 q=-0.0 size=N/A time=00:16:03.29 bitrate=N/A speed=19.5x    frame=23343 fps=467 q=-0.0 size=N/A time=00:16:13.59 bitrate=N/A speed=19.5x    frame=23580 fps=467 q=-0.0 size=N/A time=00:16:23.48 bitrate=N/A speed=19.5x    frame=23818 fps=466 q=-0.0 size=N/A time=00:16:33.40 bitrate=N/A speed=19.5x    frame=24058 fps=467 q=-0.0 size=N/A time=00:16:43.41 bitrate=N/A speed=19.5x    frame=24309 fps=467 q=-0.0 size=N/A time=00:16:53.88 bitrate=N/A speed=19.5x    frame=24512 fps=466 q=-0.0 size=N/A time=00:17:02.35 bitrate=N/A speed=19.4x    frame=24718 fps=465 q=-0.0 size=N/A time=00:17:10.94 bitrate=N/A speed=19.4x    frame=24968 fps=465 q=-0.0 size=N/A time=00:17:21.37 bitrate=N/A speed=19.4x    frame=25180 fps=465 q=-0.0 size=N/A time=00:17:30.21 bitrate=N/A speed=19.4x    frame=25412 fps=465 q=-0.0 size=N/A time=00:17:39.89 bitrate=N/A speed=19.4x    frame=25684 fps=465 q=-0.0 size=N/A time=00:17:51.23 bitrate=N/A speed=19.4x    frame=25963 fps=466 q=-0.0 size=N/A time=00:18:02.87 bitrate=N/A speed=19.4x    frame=26184 fps=466 q=-0.0 size=N/A time=00:18:12.09 bitrate=N/A speed=19.4x    frame=26421 fps=466 q=-0.0 size=N/A time=00:18:21.97 bitrate=N/A speed=19.4x    frame=26650 fps=465 q=-0.0 size=N/A time=00:18:31.52 bitrate=N/A speed=19.4x    frame=26877 fps=465 q=-0.0 size=N/A time=00:18:40.99 bitrate=N/A speed=19.4x    frame=27128 fps=465 q=-0.0 size=N/A time=00:18:51.46 bitrate=N/A speed=19.4x    frame=27412 fps=466 q=-0.0 size=N/A time=00:19:03.30 bitrate=N/A speed=19.4x    frame=27651 fps=466 q=-0.0 size=N/A time=00:19:13.27 bitrate=N/A speed=19.4x    frame=27841 fps=465 q=-0.0 size=N/A time=00:19:21.20 bitrate=N/A speed=19.4x    frame=28106 fps=466 q=-0.0 size=N/A time=00:19:32.25 bitrate=N/A speed=19.4x    frame=28385 fps=466 q=-0.0 size=N/A time=00:19:43.89 bitrate=N/A speed=19.4x    frame=28637 fps=467 q=-0.0 size=N/A time=00:19:54.40 bitrate=N/A speed=19.5x    frame=28879 fps=466 q=-0.0 size=N/A time=00:20:04.49 bitrate=N/A speed=19.5x    frame=29122 fps=467 q=-0.0 size=N/A time=00:20:14.63 bitrate=N/A speed=19.5x    frame=29353 fps=466 q=-0.0 size=N/A time=00:20:24.26 bitrate=N/A speed=19.5x    frame=29611 fps=467 q=-0.0 size=N/A time=00:20:35.02 bitrate=N/A speed=19.5x    frame=29901 fps=467 q=-0.0 size=N/A time=00:20:47.12 bitrate=N/A speed=19.5x    frame=30180 fps=468 q=-0.0 size=N/A time=00:20:58.75 bitrate=N/A speed=19.5x    frame=30414 fps=468 q=-0.0 size=N/A time=00:21:08.51 bitrate=N/A speed=19.5x    frame=30584 fps=467 q=-0.0 size=N/A time=00:21:15.60 bitrate=N/A speed=19.5x    frame=30772 fps=466 q=-0.0 size=N/A time=00:21:23.44 bitrate=N/A speed=19.4x    frame=30990 fps=466 q=-0.0 size=N/A time=00:21:32.54 bitrate=N/A speed=19.4x    frame=31247 fps=466 q=-0.0 size=N/A time=00:21:43.26 bitrate=N/A speed=19.4x    frame=31487 fps=466 q=-0.0 size=N/A time=00:21:53.27 bitrate=N/A speed=19.4x    frame=31721 fps=466 q=-0.0 size=N/A time=00:22:03.03 bitrate=N/A speed=19.4x    frame=31986 fps=466 q=-0.0 size=N/A time=00:22:14.08 bitrate=N/A speed=19.4x    frame=32259 fps=467 q=-0.0 size=N/A time=00:22:25.46 bitrate=N/A speed=19.5x    frame=32529 fps=467 q=-0.0 size=N/A time=00:22:36.73 bitrate=N/A speed=19.5x    frame=32790 fps=467 q=-0.0 size=N/A time=00:22:47.61 bitrate=N/A speed=19.5x    frame=33045 fps=468 q=-0.0 size=N/A time=00:22:58.25 bitrate=N/A speed=19.5x    frame=33292 fps=468 q=-0.0 size=N/A time=00:23:08.55 bitrate=N/A speed=19.5x    frame=33572 fps=468 q=-0.0 size=N/A time=00:23:20.23 bitrate=N/A speed=19.5x    frame=33831 fps=469 q=-0.0 size=N/A time=00:23:31.03 bitrate=N/A speed=19.5x    frame=34090 fps=469 q=-0.0 size=N/A time=00:23:41.83 bitrate=N/A speed=19.5x    frame=34352 fps=469 q=-0.0 size=N/A time=00:23:52.76 bitrate=N/A speed=19.6x    frame=34551 fps=468 q=-0.0 size=N/A time=00:24:01.06 bitrate=N/A speed=19.5x    [Parsed_psnr_10 @ 0000015c8d90c380] PSNR y:47.920932 u:49.887582 v:49.735796 average:48.464394 min:39.725623 max:inf
[out#0/null @ 0000015c85e4eec0] video:14933KiB audio:278628KiB subtitle:0KiB other streams:0KiB global headers:0KiB muxing overhead: unknown
frame=34754 fps=469 q=-0.0 Lsize=N/A time=00:24:09.53 bitrate=N/A speed=19.5x    
